<svg xmlns="http://www.w3.org/2000/svg" xmlns:xlink="http://www.w3.org/1999/xlink" width="500" zoomAndPan="magnify" viewBox="0 0 375 374.999991" height="500" preserveAspectRatio="xMidYMid meet" version="1.0"><defs><g/><clipPath id="id1"><path d="M 12.789062 135 L 36 135 L 36 217 L 12.789062 217 Z M 12.789062 135 " clip-rule="nonzero"/></clipPath><clipPath id="id2"><path d="M 12.789062 220 L 113.339844 220 L 113.339844 228.507812 L 12.789062 228.507812 Z M 12.789062 220 " clip-rule="nonzero"/></clipPath><clipPath id="id3"><path d="M 69 133.734375 L 113.339844 133.734375 L 113.339844 217 L 69 217 Z M 69 133.734375 " clip-rule="nonzero"/></clipPath></defs><g fill="rgb(0%, 0%, 0%)" fill-opacity="1"><g transform="translate(146.381935, 194.845168)"><g><path d="M 18.875 -5.046875 L 8.3125 -5.046875 L 6.5625 0 L 0.984375 0 L 10.515625 -26.546875 L 16.703125 -26.546875 L 26.234375 0 L 20.609375 0 Z M 17.421875 -9.296875 L 13.59375 -20.390625 L 9.765625 -9.296875 Z M 17.421875 -9.296875 "/></g></g></g><g fill="rgb(0%, 0%, 0%)" fill-opacity="1"><g transform="translate(176.214266, 194.845168)"><g><path d="M 16.28125 0 L 10.4375 -10.328125 L 7.9375 -10.328125 L 7.9375 0 L 2.625 0 L 2.625 -26.5 L 12.5625 -26.5 C 14.613281 -26.5 16.359375 -26.140625 17.796875 -25.421875 C 19.242188 -24.703125 20.328125 -23.726562 21.046875 -22.5 C 21.773438 -21.269531 22.140625 -19.894531 22.140625 -18.375 C 22.140625 -16.625 21.628906 -15.046875 20.609375 -13.640625 C 19.597656 -12.242188 18.09375 -11.28125 16.09375 -10.75 L 22.4375 0 Z M 7.9375 -14.3125 L 12.375 -14.3125 C 13.820312 -14.3125 14.898438 -14.660156 15.609375 -15.359375 C 16.316406 -16.054688 16.671875 -17.023438 16.671875 -18.265625 C 16.671875 -19.472656 16.316406 -20.410156 15.609375 -21.078125 C 14.898438 -21.753906 13.820312 -22.09375 12.375 -22.09375 L 7.9375 -22.09375 Z M 7.9375 -14.3125 "/></g></g></g><g fill="rgb(0%, 0%, 0%)" fill-opacity="1"><g transform="translate(203.200169, 194.845168)"><g><path d="M 17.65625 -13.59375 C 19.144531 -13.3125 20.367188 -12.5625 21.328125 -11.34375 C 22.296875 -10.132812 22.78125 -8.742188 22.78125 -7.171875 C 22.78125 -5.753906 22.429688 -4.507812 21.734375 -3.4375 C 21.035156 -2.363281 20.03125 -1.519531 18.71875 -0.90625 C 17.40625 -0.300781 15.847656 0 14.046875 0 L 2.625 0 L 2.625 -26.5 L 13.5625 -26.5 C 15.351562 -26.5 16.898438 -26.207031 18.203125 -25.625 C 19.503906 -25.039062 20.488281 -24.226562 21.15625 -23.1875 C 21.832031 -22.15625 22.171875 -20.984375 22.171875 -19.671875 C 22.171875 -18.128906 21.757812 -16.835938 20.9375 -15.796875 C 20.113281 -14.753906 19.019531 -14.019531 17.65625 -13.59375 Z M 7.9375 -15.5625 L 12.796875 -15.5625 C 14.054688 -15.5625 15.03125 -15.847656 15.71875 -16.421875 C 16.40625 -16.992188 16.75 -17.8125 16.75 -18.875 C 16.75 -19.9375 16.40625 -20.757812 15.71875 -21.34375 C 15.03125 -21.925781 14.054688 -22.21875 12.796875 -22.21875 L 7.9375 -22.21875 Z M 13.28125 -4.328125 C 14.570312 -4.328125 15.578125 -4.628906 16.296875 -5.234375 C 17.023438 -5.847656 17.390625 -6.710938 17.390625 -7.828125 C 17.390625 -8.960938 17.007812 -9.851562 16.25 -10.5 C 15.488281 -11.144531 14.460938 -11.46875 13.171875 -11.46875 L 7.9375 -11.46875 L 7.9375 -4.328125 Z M 13.28125 -4.328125 "/></g></g></g><g fill="rgb(0%, 0%, 0%)" fill-opacity="1"><g transform="translate(230.261962, 194.845168)"><g><path d="M 7.9375 -4.21875 L 16.671875 -4.21875 L 16.671875 0 L 2.625 0 L 2.625 -26.5 L 7.9375 -26.5 Z M 7.9375 -4.21875 "/></g></g></g><g fill="rgb(0%, 0%, 0%)" fill-opacity="1"><g transform="translate(250.340524, 194.845168)"><g><path d="M 14.921875 0.265625 C 12.441406 0.265625 10.160156 -0.316406 8.078125 -1.484375 C 6.003906 -2.648438 4.359375 -4.265625 3.140625 -6.328125 C 1.929688 -8.390625 1.328125 -10.722656 1.328125 -13.328125 C 1.328125 -15.910156 1.929688 -18.234375 3.140625 -20.296875 C 4.359375 -22.359375 6.003906 -23.96875 8.078125 -25.125 C 10.160156 -26.289062 12.441406 -26.875 14.921875 -26.875 C 17.429688 -26.875 19.71875 -26.289062 21.78125 -25.125 C 23.84375 -23.96875 25.472656 -22.359375 26.671875 -20.296875 C 27.867188 -18.234375 28.46875 -15.910156 28.46875 -13.328125 C 28.46875 -10.722656 27.867188 -8.390625 26.671875 -6.328125 C 25.472656 -4.265625 23.832031 -2.648438 21.75 -1.484375 C 19.675781 -0.316406 17.398438 0.265625 14.921875 0.265625 Z M 14.921875 -4.484375 C 16.515625 -4.484375 17.914062 -4.84375 19.125 -5.5625 C 20.34375 -6.28125 21.296875 -7.3125 21.984375 -8.65625 C 22.671875 -10 23.015625 -11.554688 23.015625 -13.328125 C 23.015625 -15.097656 22.671875 -16.644531 21.984375 -17.96875 C 21.296875 -19.300781 20.34375 -20.320312 19.125 -21.03125 C 17.914062 -21.738281 16.515625 -22.09375 14.921875 -22.09375 C 13.328125 -22.09375 11.914062 -21.738281 10.6875 -21.03125 C 9.457031 -20.320312 8.5 -19.300781 7.8125 -17.96875 C 7.132812 -16.644531 6.796875 -15.097656 6.796875 -13.328125 C 6.796875 -11.554688 7.132812 -10 7.8125 -8.65625 C 8.5 -7.3125 9.457031 -6.28125 10.6875 -5.5625 C 11.914062 -4.84375 13.328125 -4.484375 14.921875 -4.484375 Z M 14.921875 -4.484375 "/></g></g></g><g fill="rgb(0%, 0%, 0%)" fill-opacity="1"><g transform="translate(282.791571, 194.845168)"><g><path d="M 21.078125 -18.53125 C 20.460938 -19.644531 19.625 -20.492188 18.5625 -21.078125 C 17.5 -21.660156 16.257812 -21.953125 14.84375 -21.953125 C 13.269531 -21.953125 11.875 -21.59375 10.65625 -20.875 C 9.445312 -20.164062 8.5 -19.15625 7.8125 -17.84375 C 7.132812 -16.53125 6.796875 -15.007812 6.796875 -13.28125 C 6.796875 -11.507812 7.144531 -9.96875 7.84375 -8.65625 C 8.539062 -7.34375 9.507812 -6.332031 10.75 -5.625 C 11.988281 -4.914062 13.429688 -4.5625 15.078125 -4.5625 C 17.097656 -4.5625 18.753906 -5.097656 20.046875 -6.171875 C 21.335938 -7.242188 22.1875 -8.742188 22.59375 -10.671875 L 13.484375 -10.671875 L 13.484375 -14.734375 L 27.828125 -14.734375 L 27.828125 -10.09375 C 27.472656 -8.25 26.710938 -6.539062 25.546875 -4.96875 C 24.390625 -3.40625 22.890625 -2.144531 21.046875 -1.1875 C 19.210938 -0.238281 17.160156 0.234375 14.890625 0.234375 C 12.328125 0.234375 10.015625 -0.34375 7.953125 -1.5 C 5.890625 -2.65625 4.269531 -4.253906 3.09375 -6.296875 C 1.914062 -8.347656 1.328125 -10.675781 1.328125 -13.28125 C 1.328125 -15.894531 1.914062 -18.234375 3.09375 -20.296875 C 4.269531 -22.359375 5.890625 -23.960938 7.953125 -25.109375 C 10.015625 -26.265625 12.3125 -26.84375 14.84375 -26.84375 C 17.832031 -26.84375 20.425781 -26.113281 22.625 -24.65625 C 24.832031 -23.207031 26.351562 -21.164062 27.1875 -18.53125 Z M 21.078125 -18.53125 "/></g></g></g><g fill="rgb(0%, 0%, 0%)" fill-opacity="1"><g transform="translate(314.597419, 194.845168)"><g><path d="M 21.078125 -18.53125 C 20.460938 -19.644531 19.625 -20.492188 18.5625 -21.078125 C 17.5 -21.660156 16.257812 -21.953125 14.84375 -21.953125 C 13.269531 -21.953125 11.875 -21.59375 10.65625 -20.875 C 9.445312 -20.164062 8.5 -19.15625 7.8125 -17.84375 C 7.132812 -16.53125 6.796875 -15.007812 6.796875 -13.28125 C 6.796875 -11.507812 7.144531 -9.96875 7.84375 -8.65625 C 8.539062 -7.34375 9.507812 -6.332031 10.75 -5.625 C 11.988281 -4.914062 13.429688 -4.5625 15.078125 -4.5625 C 17.097656 -4.5625 18.753906 -5.097656 20.046875 -6.171875 C 21.335938 -7.242188 22.1875 -8.742188 22.59375 -10.671875 L 13.484375 -10.671875 L 13.484375 -14.734375 L 27.828125 -14.734375 L 27.828125 -10.09375 C 27.472656 -8.25 26.710938 -6.539062 25.546875 -4.96875 C 24.390625 -3.40625 22.890625 -2.144531 21.046875 -1.1875 C 19.210938 -0.238281 17.160156 0.234375 14.890625 0.234375 C 12.328125 0.234375 10.015625 -0.34375 7.953125 -1.5 C 5.890625 -2.65625 4.269531 -4.253906 3.09375 -6.296875 C 1.914062 -8.347656 1.328125 -10.675781 1.328125 -13.28125 C 1.328125 -15.894531 1.914062 -18.234375 3.09375 -20.296875 C 4.269531 -22.359375 5.890625 -23.960938 7.953125 -25.109375 C 10.015625 -26.265625 12.3125 -26.84375 14.84375 -26.84375 C 17.832031 -26.84375 20.425781 -26.113281 22.625 -24.65625 C 24.832031 -23.207031 26.351562 -21.164062 27.1875 -18.53125 Z M 21.078125 -18.53125 "/></g></g></g><g clip-path="url(#id1)"><path fill="rgb(85.099792%, 85.099792%, 85.099792%)" d="M 32.886719 216.398438 L 15.714844 216.398438 C 14.199219 216.398438 12.953125 215.152344 12.953125 213.640625 L 12.953125 138.277344 C 12.953125 136.761719 14.199219 135.519531 15.714844 135.519531 L 32.886719 135.519531 C 34.402344 135.519531 35.648438 136.761719 35.648438 138.277344 L 35.648438 213.640625 C 35.648438 215.152344 34.402344 216.398438 32.886719 216.398438 Z M 32.886719 216.398438 " fill-opacity="1" fill-rule="nonzero"/></g><g clip-path="url(#id2)"><path fill="rgb(36.079407%, 88.238525%, 90.19928%)" d="M 113.109375 221.910156 L 113.109375 226.992188 C 113.109375 227.859375 112.402344 228.507812 111.589844 228.507812 L 14.46875 228.507812 C 13.601562 228.507812 12.953125 227.804688 12.953125 226.992188 L 12.953125 221.910156 C 12.953125 221.046875 13.65625 220.398438 14.46875 220.398438 L 111.589844 220.398438 C 112.457031 220.398438 113.109375 221.101562 113.109375 221.910156 Z M 113.109375 221.910156 " fill-opacity="1" fill-rule="nonzero"/></g><path fill="rgb(65.098572%, 65.098572%, 65.098572%)" d="M 61.867188 216.398438 L 44.695312 216.398438 C 43.175781 216.398438 41.933594 215.152344 41.933594 213.640625 L 41.933594 138.277344 C 41.933594 136.761719 43.175781 135.519531 44.695312 135.519531 L 61.867188 135.519531 C 63.382812 135.519531 64.628906 136.761719 64.628906 138.277344 L 64.628906 213.640625 C 64.574219 215.152344 63.382812 216.398438 61.867188 216.398438 Z M 61.867188 216.398438 " fill-opacity="1" fill-rule="nonzero"/><g clip-path="url(#id3)"><path fill="rgb(45.098877%, 45.098877%, 45.098877%)" d="M 111.160156 211.421875 L 94.691406 216.234375 C 93.230469 216.667969 91.710938 215.855469 91.277344 214.394531 L 69.9375 142.113281 C 69.503906 140.65625 70.316406 139.140625 71.777344 138.710938 L 88.246094 133.84375 C 89.707031 133.410156 91.222656 134.222656 91.65625 135.683594 L 113 208.015625 C 113.433594 209.476562 112.621094 210.992188 111.160156 211.421875 Z M 111.160156 211.421875 " fill-opacity="1" fill-rule="nonzero"/></g></svg>