<svg xmlns="http://www.w3.org/2000/svg" xmlns:xlink="http://www.w3.org/1999/xlink" width="500" zoomAndPan="magnify" viewBox="0 0 375 374.999991" height="500" preserveAspectRatio="xMidYMid meet" version="1.0"><defs><clipPath id="id1"><path d="M 3 37.5 L 372 37.5 L 372 62.25 L 3 62.25 Z M 3 37.5 " clip-rule="nonzero"/></clipPath><clipPath id="id2"><path d="M 3 175.226562 L 372 175.226562 L 372 199.976562 L 3 199.976562 Z M 3 175.226562 " clip-rule="nonzero"/></clipPath><clipPath id="id3"><path d="M 3 312.953125 L 372 312.953125 L 372 337.703125 L 3 337.703125 Z M 3 312.953125 " clip-rule="nonzero"/></clipPath></defs><g clip-path="url(#id1)"><path fill="rgb(0%, 0%, 0%)" d="M 359.273438 37.5 L 15.726562 37.5 C 8.949219 37.5 3.457031 43.039062 3.457031 49.875 C 3.457031 56.710938 8.949219 62.25 15.726562 62.25 L 359.273438 62.25 C 366.050781 62.25 371.542969 56.710938 371.542969 49.875 C 371.542969 43.039062 366.050781 37.5 359.273438 37.5 Z M 359.273438 37.5 " fill-opacity="1" fill-rule="nonzero"/></g><g clip-path="url(#id2)"><path fill="rgb(0%, 0%, 0%)" d="M 359.273438 175.226562 L 15.726562 175.226562 C 8.949219 175.226562 3.457031 180.769531 3.457031 187.601562 C 3.457031 194.4375 8.949219 199.976562 15.726562 199.976562 L 359.273438 199.976562 C 366.050781 199.976562 371.542969 194.4375 371.542969 187.601562 C 371.542969 180.769531 366.050781 175.226562 359.273438 175.226562 Z M 359.273438 175.226562 " fill-opacity="1" fill-rule="nonzero"/></g><g clip-path="url(#id3)"><path fill="rgb(0%, 0%, 0%)" d="M 359.273438 312.953125 L 15.726562 312.953125 C 8.949219 312.953125 3.457031 318.496094 3.457031 325.328125 C 3.457031 332.164062 8.949219 337.703125 15.726562 337.703125 L 359.273438 337.703125 C 366.050781 337.703125 371.542969 332.164062 371.542969 325.328125 C 371.542969 318.496094 366.050781 312.953125 359.273438 312.953125 Z M 359.273438 312.953125 " fill-opacity="1" fill-rule="nonzero"/></g></svg>