<svg xmlns="http://www.w3.org/2000/svg" xmlns:xlink="http://www.w3.org/1999/xlink" width="500" zoomAndPan="magnify" viewBox="0 0 375 374.999991" height="500" preserveAspectRatio="xMidYMid meet" version="1.0"><defs><clipPath id="id1"><path d="M 42.523438 6.222656 L 332 6.222656 L 332 375 L 42.523438 375 Z M 42.523438 6.222656 " clip-rule="nonzero"/></clipPath></defs><g clip-path="url(#id1)"><path fill="rgb(0%, 0%, 0%)" d="M 329.097656 98.828125 L 44.886719 98.828125 L 42.523438 73.753906 C 42.484375 73.300781 42.464844 72.84375 42.472656 72.390625 C 42.476562 71.933594 42.507812 71.480469 42.5625 71.027344 C 42.617188 70.574219 42.691406 70.125 42.792969 69.679688 C 42.894531 69.238281 43.015625 68.796875 43.164062 68.367188 C 43.308594 67.933594 43.476562 67.511719 43.667969 67.097656 C 43.855469 66.683594 44.070312 66.28125 44.300781 65.886719 C 44.53125 65.496094 44.785156 65.117188 45.054688 64.75 C 45.328125 64.382812 45.617188 64.035156 45.925781 63.699219 C 46.234375 63.363281 46.558594 63.042969 46.902344 62.742188 C 47.242188 62.4375 47.597656 62.15625 47.96875 61.890625 C 48.339844 61.625 48.722656 61.378906 49.121094 61.15625 C 49.519531 60.929688 49.925781 60.726562 50.34375 60.542969 C 50.761719 60.363281 51.1875 60.203125 51.621094 60.0625 C 52.054688 59.925781 52.496094 59.808594 52.941406 59.71875 C 53.390625 59.625 53.839844 59.554688 54.292969 59.511719 C 54.746094 59.464844 55.203125 59.441406 55.65625 59.445312 L 318.328125 59.445312 C 318.78125 59.441406 319.238281 59.464844 319.691406 59.511719 C 320.144531 59.554688 320.59375 59.625 321.042969 59.71875 C 321.488281 59.808594 321.929688 59.925781 322.363281 60.0625 C 322.796875 60.203125 323.222656 60.363281 323.640625 60.542969 C 324.058594 60.726562 324.464844 60.929688 324.863281 61.15625 C 325.261719 61.378906 325.644531 61.625 326.015625 61.890625 C 326.386719 62.15625 326.742188 62.4375 327.082031 62.742188 C 327.425781 63.042969 327.75 63.363281 328.058594 63.699219 C 328.367188 64.035156 328.65625 64.382812 328.929688 64.75 C 329.199219 65.117188 329.453125 65.496094 329.683594 65.886719 C 329.914062 66.28125 330.128906 66.683594 330.316406 67.097656 C 330.507812 67.511719 330.675781 67.933594 330.820312 68.367188 C 330.96875 68.796875 331.089844 69.238281 331.191406 69.679688 C 331.292969 70.125 331.367188 70.574219 331.421875 71.027344 C 331.476562 71.480469 331.507812 71.933594 331.511719 72.390625 C 331.519531 72.84375 331.5 73.300781 331.460938 73.753906 Z M 326.730469 125.082031 L 307.292969 338.667969 C 307.183594 339.882812 307.019531 341.089844 306.796875 342.289062 C 306.574219 343.488281 306.296875 344.671875 305.964844 345.847656 C 305.632812 347.019531 305.25 348.175781 304.808594 349.3125 C 304.371094 350.449219 303.878906 351.5625 303.335938 352.65625 C 302.792969 353.746094 302.203125 354.8125 301.558594 355.847656 C 300.917969 356.882812 300.230469 357.890625 299.496094 358.863281 C 298.757812 359.835938 297.980469 360.769531 297.160156 361.671875 C 296.335938 362.570312 295.472656 363.433594 294.574219 364.253906 C 293.671875 365.074219 292.730469 365.851562 291.757812 366.582031 C 290.785156 367.316406 289.777344 368.003906 288.738281 368.644531 C 287.703125 369.285156 286.636719 369.875 285.542969 370.414062 C 284.449219 370.957031 283.335938 371.445312 282.195312 371.882812 C 281.058594 372.320312 279.902344 372.707031 278.726562 373.035156 C 277.554688 373.367188 276.367188 373.640625 275.167969 373.859375 C 273.96875 374.082031 272.761719 374.246094 271.546875 374.351562 C 270.332031 374.460938 269.113281 374.511719 267.894531 374.507812 L 105.957031 374.507812 C 104.738281 374.511719 103.523438 374.460938 102.308594 374.351562 C 101.09375 374.246094 99.886719 374.082031 98.683594 373.859375 C 97.484375 373.640625 96.300781 373.367188 95.125 373.035156 C 93.949219 372.707031 92.792969 372.320312 91.65625 371.882812 C 90.519531 371.445312 89.402344 370.957031 88.308594 370.414062 C 87.214844 369.875 86.152344 369.285156 85.113281 368.644531 C 84.074219 368.003906 83.070312 367.316406 82.09375 366.582031 C 81.121094 365.851562 80.183594 365.074219 79.28125 364.253906 C 78.378906 363.433594 77.515625 362.570312 76.695312 361.671875 C 75.871094 360.769531 75.09375 359.835938 74.359375 358.863281 C 73.625 357.890625 72.933594 356.882812 72.292969 355.847656 C 71.652344 354.8125 71.058594 353.746094 70.515625 352.65625 C 69.972656 351.5625 69.484375 350.449219 69.042969 349.3125 C 68.605469 348.175781 68.21875 347.019531 67.886719 345.847656 C 67.554688 344.671875 67.277344 343.488281 67.054688 342.289062 C 66.832031 341.089844 66.667969 339.882812 66.558594 338.667969 L 47.25 125.082031 Z M 147.589844 307.425781 L 134.457031 189.277344 C 134.363281 188.414062 134.1875 187.570312 133.925781 186.742188 C 133.664062 185.914062 133.324219 185.121094 132.90625 184.359375 C 132.488281 183.601562 132.003906 182.886719 131.445312 182.222656 C 130.886719 181.558594 130.269531 180.953125 129.59375 180.410156 C 128.914062 179.871094 128.191406 179.398438 127.421875 178.996094 C 126.652344 178.597656 125.851562 178.277344 125.015625 178.03125 C 124.183594 177.789062 123.335938 177.632812 122.46875 177.554688 C 121.605469 177.480469 120.742188 177.492188 119.878906 177.585938 C 119.015625 177.679688 118.171875 177.859375 117.34375 178.121094 C 116.515625 178.382812 115.722656 178.722656 114.960938 179.136719 C 114.199219 179.554688 113.488281 180.042969 112.824219 180.601562 C 112.160156 181.160156 111.554688 181.777344 111.011719 182.453125 C 110.46875 183.132812 110 183.855469 109.597656 184.625 C 109.199219 185.394531 108.878906 186.195312 108.636719 187.03125 C 108.394531 187.863281 108.234375 188.710938 108.160156 189.574219 C 108.085938 190.441406 108.097656 191.304688 108.191406 192.164062 L 121.324219 310.3125 C 121.414062 311.113281 121.574219 311.898438 121.808594 312.667969 C 122.039062 313.4375 122.339844 314.179688 122.710938 314.894531 C 123.078125 315.609375 123.511719 316.285156 124.003906 316.921875 C 124.5 317.554688 125.046875 318.140625 125.648438 318.675781 C 126.25 319.210938 126.894531 319.6875 127.582031 320.101562 C 128.269531 320.519531 128.992188 320.871094 129.746094 321.152344 C 130.496094 321.4375 131.269531 321.648438 132.0625 321.792969 C 132.855469 321.933594 133.652344 322.003906 134.457031 321.996094 L 135.902344 321.996094 C 136.765625 321.90625 137.613281 321.734375 138.445312 321.476562 C 139.273438 321.21875 140.070312 320.882812 140.832031 320.464844 C 141.597656 320.050781 142.3125 319.5625 142.976562 319.003906 C 143.644531 318.449219 144.25 317.828125 144.792969 317.152344 C 145.335938 316.472656 145.808594 315.75 146.207031 314.980469 C 146.605469 314.207031 146.925781 313.402344 147.167969 312.570312 C 147.40625 311.734375 147.5625 310.882812 147.636719 310.019531 C 147.707031 309.152344 147.691406 308.289062 147.589844 307.425781 Z M 200.125 190.722656 C 200.125 189.859375 200.042969 189.003906 199.875 188.160156 C 199.703125 187.316406 199.457031 186.492188 199.125 185.699219 C 198.796875 184.902344 198.390625 184.144531 197.914062 183.429688 C 197.433594 182.710938 196.890625 182.046875 196.277344 181.4375 C 195.667969 180.828125 195.003906 180.285156 194.289062 179.804688 C 193.570312 179.328125 192.816406 178.921875 192.019531 178.59375 C 191.222656 178.261719 190.398438 178.015625 189.554688 177.847656 C 188.707031 177.675781 187.855469 177.59375 186.992188 177.59375 C 186.128906 177.59375 185.277344 177.675781 184.429688 177.847656 C 183.585938 178.015625 182.761719 178.261719 181.964844 178.59375 C 181.167969 178.921875 180.414062 179.328125 179.695312 179.804688 C 178.980469 180.285156 178.316406 180.828125 177.707031 181.4375 C 177.09375 182.046875 176.550781 182.710938 176.070312 183.429688 C 175.59375 184.144531 175.1875 184.902344 174.859375 185.699219 C 174.527344 186.492188 174.277344 187.316406 174.109375 188.160156 C 173.941406 189.003906 173.859375 189.859375 173.859375 190.722656 L 173.859375 308.871094 C 173.859375 309.730469 173.941406 310.585938 174.109375 311.429688 C 174.277344 312.277344 174.527344 313.097656 174.859375 313.894531 C 175.1875 314.691406 175.59375 315.445312 176.070312 316.164062 C 176.550781 316.878906 177.09375 317.542969 177.707031 318.152344 C 178.316406 318.761719 178.980469 319.304688 179.695312 319.785156 C 180.414062 320.265625 181.167969 320.667969 181.964844 320.996094 C 182.761719 321.328125 183.585938 321.578125 184.429688 321.746094 C 185.277344 321.914062 186.128906 321.996094 186.992188 321.996094 C 187.855469 321.996094 188.707031 321.914062 189.554688 321.746094 C 190.398438 321.578125 191.222656 321.328125 192.019531 321 C 192.816406 320.667969 193.570312 320.265625 194.289062 319.785156 C 195.003906 319.304688 195.667969 318.761719 196.277344 318.152344 C 196.890625 317.542969 197.433594 316.878906 197.914062 316.164062 C 198.390625 315.445312 198.796875 314.691406 199.125 313.894531 C 199.457031 313.097656 199.703125 312.277344 199.875 311.429688 C 200.042969 310.585938 200.125 309.730469 200.125 308.871094 Z M 265.792969 192.164062 C 265.886719 191.304688 265.898438 190.441406 265.824219 189.574219 C 265.75 188.710938 265.589844 187.863281 265.347656 187.03125 C 265.105469 186.195312 264.785156 185.394531 264.386719 184.625 C 263.984375 183.855469 263.511719 183.132812 262.96875 182.457031 C 262.429688 181.777344 261.824219 181.160156 261.160156 180.601562 C 260.496094 180.046875 259.78125 179.558594 259.023438 179.140625 C 258.261719 178.722656 257.46875 178.382812 256.640625 178.121094 C 255.8125 177.859375 254.96875 177.683594 254.105469 177.585938 C 253.242188 177.492188 252.378906 177.484375 251.515625 177.558594 C 250.648438 177.632812 249.800781 177.792969 248.96875 178.035156 C 248.132812 178.277344 247.332031 178.597656 246.5625 179 C 245.792969 179.398438 245.070312 179.871094 244.390625 180.414062 C 243.714844 180.957031 243.097656 181.558594 242.539062 182.222656 C 241.980469 182.886719 241.496094 183.601562 241.078125 184.359375 C 240.660156 185.121094 240.320312 185.914062 240.058594 186.742188 C 239.796875 187.570312 239.621094 188.414062 239.527344 189.277344 L 226.394531 307.425781 C 226.300781 308.277344 226.292969 309.132812 226.371094 309.988281 C 226.445312 310.839844 226.601562 311.679688 226.84375 312.503906 C 227.085938 313.324219 227.402344 314.117188 227.796875 314.878906 C 228.195312 315.640625 228.660156 316.355469 229.195312 317.023438 C 229.730469 317.695312 230.328125 318.304688 230.984375 318.859375 C 231.640625 319.414062 232.34375 319.894531 233.09375 320.3125 C 233.84375 320.726562 234.628906 321.066406 235.445312 321.328125 C 236.261719 321.589844 237.097656 321.769531 237.949219 321.867188 L 239.527344 321.867188 C 240.332031 321.871094 241.128906 321.800781 241.921875 321.660156 C 242.714844 321.519531 243.488281 321.304688 244.238281 321.023438 C 244.992188 320.738281 245.714844 320.386719 246.402344 319.972656 C 247.089844 319.554688 247.734375 319.078125 248.335938 318.546875 C 248.9375 318.011719 249.484375 317.425781 249.980469 316.789062 C 250.472656 316.152344 250.90625 315.480469 251.273438 314.765625 C 251.644531 314.050781 251.945312 313.308594 252.175781 312.535156 C 252.410156 311.765625 252.570312 310.980469 252.660156 310.183594 Z M 250.296875 33.191406 C 249.621094 31.285156 248.808594 29.445312 247.851562 27.667969 C 246.894531 25.886719 245.804688 24.191406 244.589844 22.582031 C 243.371094 20.96875 242.039062 19.460938 240.589844 18.054688 C 239.136719 16.648438 237.589844 15.363281 235.941406 14.191406 C 234.292969 13.023438 232.566406 11.988281 230.757812 11.085938 C 228.953125 10.183594 227.085938 9.425781 225.164062 8.808594 C 223.238281 8.195312 221.277344 7.730469 219.28125 7.414062 C 217.289062 7.101562 215.28125 6.941406 213.257812 6.933594 L 160.726562 6.933594 C 158.703125 6.941406 156.695312 7.101562 154.703125 7.414062 C 152.707031 7.730469 150.746094 8.195312 148.820312 8.808594 C 146.898438 9.425781 145.03125 10.183594 143.226562 11.085938 C 141.417969 11.988281 139.691406 13.023438 138.042969 14.191406 C 136.394531 15.363281 134.847656 16.648438 133.394531 18.054688 C 131.945312 19.460938 130.613281 20.96875 129.394531 22.582031 C 128.179688 24.191406 127.089844 25.886719 126.132812 27.667969 C 125.175781 29.445312 124.363281 31.285156 123.6875 33.191406 Z M 250.296875 33.191406 " fill-opacity="1" fill-rule="nonzero"/></g></svg>