<svg xmlns="http://www.w3.org/2000/svg" xmlns:xlink="http://www.w3.org/1999/xlink" width="500" zoomAndPan="magnify" viewBox="0 0 375 374.999991" height="500" preserveAspectRatio="xMidYMid meet" version="1.0"><path stroke-linecap="round" transform="matrix(0.0850263, 0, 0, 0.0850263, -201.240246, -201.240251)" fill="none" stroke-linejoin="round" d="M 3630.012115 3630.012168 L 5513.988032 5513.988085 " stroke="rgb(100%, 100%, 100%)" stroke-width="176.38" stroke-opacity="1" stroke-miterlimit="4"/><path stroke-linecap="round" transform="matrix(0.0850263, 0, 0, 0.0850263, -201.240246, -201.240251)" fill="none" stroke-linejoin="round" d="M 5513.988032 3630.012168 L 3630.012115 5513.988085 " stroke="rgb(100%, 100%, 100%)" stroke-width="176.38" stroke-opacity="1" stroke-miterlimit="4"/><path stroke-linecap="round" transform="matrix(0.0850263, 0, 0, 0.0850263, -201.240246, -201.240251)" fill="none" stroke-linejoin="round" d="M 6688.99213 4572.000127 C 6688.99213 4606.640144 6688.16518 4641.280162 6686.465338 4675.874238 C 6684.765496 4710.468314 6682.192763 4745.016448 6678.79308 4779.51864 C 6675.393396 4813.974891 6671.166763 4848.339259 6666.067238 4882.611743 C 6661.013654 4916.884227 6655.087179 4951.018887 6648.333754 4985.015721 C 6641.580329 5018.966613 6633.954012 5052.779681 6625.546686 5086.408982 C 6617.139361 5119.992341 6607.905086 5153.391934 6597.843861 5186.515876 C 6587.782635 5219.68576 6576.940402 5252.579995 6565.271218 5285.198579 C 6553.556093 5317.817163 6541.105901 5350.114156 6527.874701 5382.135498 C 6514.597559 5414.156841 6500.539408 5445.81065 6485.746191 5477.142867 C 6470.952974 5508.475085 6455.378749 5539.393827 6439.023515 5569.945036 C 6422.714223 5600.496246 6405.623922 5630.63398 6387.798555 5660.358239 C 6370.01913 5690.082498 6351.458696 5719.34734 6332.209137 5748.152766 C 6312.959578 5776.958192 6293.020894 5805.258259 6272.393085 5833.09891 C 6251.765277 5860.939561 6230.448343 5888.228912 6208.442284 5915.012904 C 6186.482166 5941.796896 6163.878866 5968.029589 6140.58644 5993.710981 C 6117.339956 6019.346432 6093.450289 6044.430582 6068.96338 6068.963433 C 6044.430529 6093.450342 6019.346379 6117.340009 5993.710928 6140.586493 C 5968.029536 6163.878919 5941.796843 6186.482219 5915.012851 6208.442337 C 5888.228859 6230.448396 5860.939508 6251.765329 5833.098857 6272.393138 C 5805.258206 6293.020947 5776.958139 6312.959631 5748.152713 6332.20919 C 5719.347287 6351.458749 5690.082445 6370.019183 5660.358186 6387.798608 C 5630.633927 6405.623975 5600.496193 6422.714276 5569.944983 6439.023568 C 5539.393774 6455.378802 5508.475032 6470.953027 5477.142814 6485.746244 C 5445.810597 6500.539461 5414.156788 6514.597611 5382.135445 6527.874753 C 5350.114103 6541.105954 5317.81711 6553.556146 5285.198526 6565.271271 C 5252.579942 6576.940455 5219.685708 6587.782688 5186.515823 6597.843914 C 5153.391881 6607.905139 5119.992288 6617.139414 5086.408929 6625.546739 C 5052.779628 6633.954065 5018.966561 6641.580381 4985.015668 6648.333807 C 4951.018834 6655.087232 4916.884175 6661.013707 4882.61169 6666.06729 C 4848.339206 6671.166816 4813.974838 6675.393449 4779.518588 6678.793132 C 4745.016395 6682.192816 4710.468261 6684.765549 4675.874185 6686.465391 C 4641.280109 6688.165233 4606.640091 6688.992183 4572.000074 6688.992183 C 4537.360056 6688.992183 4502.720039 6688.165233 4468.125963 6686.465391 C 4433.531887 6684.765549 4398.983752 6682.192816 4364.48156 6678.793132 C 4330.025309 6675.393449 4295.660941 6671.166816 4261.388457 6666.06729 C 4227.115973 6661.013707 4192.981314 6655.087232 4158.984479 6648.333807 C 4125.033587 6641.580381 4091.220519 6633.954065 4057.591218 6625.546739 C 4024.007859 6617.139414 3990.608267 6607.905139 3957.484324 6597.843914 C 3924.31444 6587.782688 3891.420206 6576.940455 3858.801621 6565.271271 C 3826.183037 6553.556146 3793.886045 6541.105954 3761.864702 6527.874753 C 3729.84336 6514.597611 3698.189551 6500.539461 3666.857333 6485.746244 C 3635.525116 6470.953027 3604.606373 6455.378802 3574.055164 6439.023568 C 3543.503955 6422.714276 3513.366221 6405.623975 3483.641962 6387.798608 C 3453.917702 6370.019183 3424.65286 6351.458749 3395.847434 6332.20919 C 3367.042008 6312.959631 3338.741941 6293.020947 3310.90129 6272.393138 C 3283.06064 6251.765329 3255.771289 6230.448396 3228.987296 6208.442337 C 3202.203304 6186.482219 3175.970612 6163.878919 3150.289219 6140.586493 C 3124.653769 6117.340009 3099.569618 6093.450342 3075.036767 6068.963433 C 3050.549858 6044.430582 3026.660191 6019.346432 3003.413707 5993.710981 C 2980.121282 5968.029589 2957.517981 5941.796896 2935.557864 5915.012904 C 2913.551805 5888.228912 2892.234871 5860.939561 2871.607062 5833.09891 C 2850.979253 5805.258259 2831.040569 5776.958192 2811.79101 5748.152766 C 2792.541452 5719.34734 2773.981018 5690.082498 2756.201592 5660.358239 C 2738.376225 5630.63398 2721.285925 5600.496246 2704.976633 5569.945036 C 2688.621399 5539.393827 2673.047173 5508.475085 2658.253956 5477.142867 C 2643.460739 5445.81065 2629.402589 5414.156841 2616.125447 5382.135498 C 2602.894247 5350.114156 2590.444055 5317.817163 2578.728929 5285.198579 C 2567.059746 5252.579995 2556.217512 5219.68576 2546.156287 5186.515876 C 2536.095061 5153.391934 2526.860786 5119.992341 2518.453461 5086.408982 C 2510.046136 5052.779681 2502.419819 5018.966613 2495.666394 4985.015721 C 2488.912969 4951.018887 2482.986493 4916.884227 2477.93291 4882.611743 C 2472.833385 4848.339259 2468.606751 4813.974891 2465.207068 4779.51864 C 2461.807384 4745.016448 2459.234651 4710.468314 2457.534809 4675.874238 C 2455.834968 4641.280162 2455.008018 4606.640144 2455.008018 4572.000127 C 2455.008018 4537.360109 2455.834968 4502.720091 2457.534809 4468.126016 C 2459.234651 4433.53194 2461.807384 4398.983805 2465.207068 4364.481613 C 2468.606751 4330.025362 2472.833385 4295.660994 2477.93291 4261.38851 C 2482.986493 4227.116026 2488.912969 4192.981367 2495.666394 4158.984532 C 2502.419819 4125.03364 2510.046136 4091.220572 2518.453461 4057.591271 C 2526.860786 4024.007912 2536.095061 3990.60832 2546.156287 3957.484377 C 2556.217512 3924.314493 2567.059746 3891.420259 2578.728929 3858.801674 C 2590.444055 3826.18309 2602.894247 3793.886098 2616.125447 3761.864755 C 2629.402589 3729.843413 2643.460739 3698.189603 2658.253956 3666.857386 C 2673.047173 3635.525168 2688.621399 3604.606426 2704.976633 3574.055217 C 2721.285925 3543.504008 2738.376225 3513.366274 2756.201592 3483.642014 C 2773.981018 3453.917755 2792.541452 3424.652913 2811.79101 3395.847487 C 2831.040569 3367.042061 2850.979253 3338.741994 2871.607062 3310.901343 C 2892.234871 3283.060692 2913.551805 3255.771342 2935.557864 3228.987349 C 2957.517981 3202.203357 2980.121282 3175.970665 3003.413707 3150.289272 C 3026.660191 3124.653822 3050.549858 3099.569671 3075.036767 3075.03682 C 3099.569618 3050.549911 3124.653769 3026.660244 3150.289219 3003.41376 C 3175.970612 2980.121334 3202.203304 2957.518034 3228.987296 2935.557917 C 3255.771289 2913.551858 3283.06064 2892.234924 3310.90129 2871.607115 C 3338.741941 2850.979306 3367.042008 2831.040622 3395.847434 2811.791063 C 3424.65286 2792.541504 3453.917702 2773.981071 3483.641962 2756.201645 C 3513.366221 2738.376278 3543.503955 2721.285978 3574.055164 2704.976685 C 3604.606373 2688.621452 3635.525116 2673.047226 3666.857333 2658.254009 C 3698.189551 2643.460792 3729.84336 2629.402642 3761.864702 2616.1255 C 3793.886045 2602.894299 3826.183037 2590.444107 3858.801621 2578.728982 C 3891.420206 2567.059799 3924.31444 2556.217565 3957.484324 2546.15634 C 3990.608267 2536.095114 4024.007859 2526.860839 4057.591218 2518.453514 C 4091.220519 2510.046189 4125.033587 2502.419872 4158.984479 2495.666447 C 4192.981314 2488.913021 4227.115973 2482.986546 4261.388457 2477.932963 C 4295.660941 2472.833438 4330.025309 2468.606804 4364.48156 2465.207121 C 4398.983752 2461.807437 4433.531887 2459.234704 4468.125963 2457.534862 C 4502.720039 2455.835021 4537.360056 2455.008071 4572.000074 2455.008071 C 4606.640091 2455.008071 4641.280109 2455.835021 4675.874185 2457.534862 C 4710.468261 2459.234704 4745.016395 2461.807437 4779.518588 2465.207121 C 4813.974838 2468.606804 4848.339206 2472.833438 4882.61169 2477.932963 C 4916.884175 2482.986546 4951.018834 2488.913021 4985.015668 2495.666447 C 5018.966561 2502.419872 5052.779628 2510.046189 5086.408929 2518.453514 C 5119.992288 2526.860839 5153.391881 2536.095114 5186.515823 2546.15634 C 5219.685708 2556.217565 5252.579942 2567.059799 5285.198526 2578.728982 C 5317.81711 2590.444107 5350.114103 2602.894299 5382.135445 2616.1255 C 5414.156788 2629.402642 5445.810597 2643.460792 5477.142814 2658.254009 C 5508.475032 2673.047226 5539.393774 2688.621452 5569.944983 2704.976685 C 5600.496193 2721.285978 5630.633927 2738.376278 5660.358186 2756.201645 C 5690.082445 2773.981071 5719.347287 2792.541504 5748.152713 2811.791063 C 5776.958139 2831.040622 5805.258206 2850.979306 5833.098857 2871.607115 C 5860.939508 2892.234924 5888.228859 2913.551858 5915.012851 2935.557917 C 5941.796843 2957.518034 5968.029536 2980.121334 5993.710928 3003.41376 C 6019.346379 3026.660244 6044.430529 3050.549911 6068.96338 3075.03682 C 6093.450289 3099.569671 6117.339956 3124.653822 6140.58644 3150.289272 C 6163.878866 3175.970665 6186.482166 3202.203357 6208.442284 3228.987349 C 6230.448343 3255.771342 6251.765277 3283.060692 6272.393085 3310.901343 C 6293.020894 3338.741994 6312.959578 3367.042061 6332.209137 3395.847487 C 6351.458696 3424.652913 6370.01913 3453.917755 6387.798555 3483.642014 C 6405.623922 3513.366274 6422.714223 3543.504008 6439.023515 3574.055217 C 6455.378749 3604.606426 6470.952974 3635.525168 6485.746191 3666.857386 C 6500.539408 3698.189603 6514.597559 3729.843413 6527.874701 3761.864755 C 6541.105901 3793.886098 6553.556093 3826.18309 6565.271218 3858.801674 C 6576.940402 3891.420259 6587.782635 3924.314493 6597.843861 3957.484377 C 6607.905086 3990.60832 6617.139361 4024.007912 6625.546686 4057.591271 C 6633.954012 4091.220572 6641.580329 4125.03364 6648.333754 4158.984532 C 6655.087179 4192.981367 6661.013654 4227.116026 6666.067238 4261.38851 C 6671.166763 4295.660994 6675.393396 4330.025362 6678.79308 4364.481613 C 6682.192763 4398.983805 6684.765496 4433.53194 6686.465338 4468.126016 C 6688.16518 4502.720091 6688.99213 4537.360109 6688.99213 4572.000127 Z M 6688.99213 4572.000127 " stroke="rgb(100%, 100%, 100%)" stroke-width="176.38" stroke-opacity="1" stroke-miterlimit="4"/><path fill="rgb(0%, 0%, 0%)" d="M 187.5 375 C 290.886719 375 375 290.890625 375 187.5 C 375 84.109375 290.886719 0 187.5 0 C 84.113281 0 0 84.109375 0 187.5 C 0 290.890625 84.113281 375 187.5 375 Z M 187.5 16.667969 C 281.699219 16.667969 358.332031 93.300781 358.332031 187.5 C 358.332031 281.699219 281.699219 358.332031 187.5 358.332031 C 93.300781 358.332031 16.667969 281.699219 16.667969 187.5 C 16.667969 93.300781 93.300781 16.667969 187.5 16.667969 Z M 187.5 16.667969 " fill-opacity="1" fill-rule="nonzero"/><path fill="rgb(0%, 0%, 0%)" d="M 120.035156 254.964844 C 121.660156 256.589844 123.796875 257.40625 125.929688 257.40625 C 128.0625 257.40625 130.195312 256.589844 131.820312 254.964844 L 187.5 199.285156 L 243.179688 254.964844 C 244.804688 256.589844 246.941406 257.40625 249.074219 257.40625 C 251.203125 257.40625 253.339844 256.589844 254.964844 254.964844 C 258.21875 251.707031 258.21875 246.433594 254.964844 243.179688 L 199.285156 187.5 L 254.964844 131.820312 C 258.21875 128.566406 258.21875 123.292969 254.964844 120.035156 C 251.710938 116.78125 246.429688 116.78125 243.179688 120.035156 L 187.5 175.714844 L 131.820312 120.035156 C 128.570312 116.78125 123.289062 116.78125 120.035156 120.035156 C 116.78125 123.292969 116.78125 128.566406 120.035156 131.820312 L 175.714844 187.5 L 120.035156 243.179688 C 116.78125 246.433594 116.78125 251.707031 120.035156 254.964844 Z M 120.035156 254.964844 " fill-opacity="1" fill-rule="nonzero"/></svg>