<svg xmlns="http://www.w3.org/2000/svg" xmlns:xlink="http://www.w3.org/1999/xlink" width="500" zoomAndPan="magnify" viewBox="0 0 375 374.999991" height="500" preserveAspectRatio="xMidYMid meet" version="1.0"><defs><clipPath id="id1"><path d="M 25 78 L 354 78 L 354 297 L 25 297 Z M 25 78 " clip-rule="nonzero"/></clipPath><clipPath id="id2"><path d="M -98.722656 187.5 L 187.65625 -98.878906 L 474.035156 187.5 L 187.65625 473.878906 Z M -98.722656 187.5 " clip-rule="nonzero"/></clipPath><clipPath id="id3"><path d="M -98.722656 187.5 L 187.65625 -98.878906 L 474.035156 187.5 L 187.65625 473.878906 Z M -98.722656 187.5 " clip-rule="nonzero"/></clipPath><clipPath id="id4"><path d="M -98.722656 187.5 L 187.65625 -98.878906 L 474.035156 187.5 L 187.65625 473.878906 Z M -98.722656 187.5 " clip-rule="nonzero"/></clipPath><clipPath id="id5"><path d="M 12 65 L 367 65 L 367 310 L 12 310 Z M 12 65 " clip-rule="nonzero"/></clipPath><clipPath id="id6"><path d="M -98.722656 187.5 L 187.65625 -98.878906 L 474.035156 187.5 L 187.65625 473.878906 Z M -98.722656 187.5 " clip-rule="nonzero"/></clipPath><clipPath id="id7"><path d="M -98.722656 187.5 L 187.65625 -98.878906 L 474.035156 187.5 L 187.65625 473.878906 Z M -98.722656 187.5 " clip-rule="nonzero"/></clipPath><clipPath id="id8"><path d="M -98.722656 187.5 L 187.65625 -98.878906 L 474.035156 187.5 L 187.65625 473.878906 Z M -98.722656 187.5 " clip-rule="nonzero"/></clipPath><clipPath id="id9"><path d="M 25 151 L 354 151 L 354 297 L 25 297 Z M 25 151 " clip-rule="nonzero"/></clipPath><clipPath id="id10"><path d="M -98.722656 187.5 L 187.65625 -98.878906 L 474.035156 187.5 L 187.65625 473.878906 Z M -98.722656 187.5 " clip-rule="nonzero"/></clipPath><clipPath id="id11"><path d="M -98.722656 187.5 L 187.65625 -98.878906 L 474.035156 187.5 L 187.65625 473.878906 Z M -98.722656 187.5 " clip-rule="nonzero"/></clipPath><clipPath id="id12"><path d="M -98.722656 187.5 L 187.65625 -98.878906 L 474.035156 187.5 L 187.65625 473.878906 Z M -98.722656 187.5 " clip-rule="nonzero"/></clipPath><clipPath id="id13"><path d="M 12 138 L 367 138 L 367 310 L 12 310 Z M 12 138 " clip-rule="nonzero"/></clipPath><clipPath id="id14"><path d="M -98.722656 187.5 L 187.65625 -98.878906 L 474.035156 187.5 L 187.65625 473.878906 Z M -98.722656 187.5 " clip-rule="nonzero"/></clipPath><clipPath id="id15"><path d="M -98.722656 187.5 L 187.65625 -98.878906 L 474.035156 187.5 L 187.65625 473.878906 Z M -98.722656 187.5 " clip-rule="nonzero"/></clipPath><clipPath id="id16"><path d="M -98.722656 187.5 L 187.65625 -98.878906 L 474.035156 187.5 L 187.65625 473.878906 Z M -98.722656 187.5 " clip-rule="nonzero"/></clipPath><clipPath id="id17"><path d="M 25 78 L 354 78 L 354 188 L 25 188 Z M 25 78 " clip-rule="nonzero"/></clipPath><clipPath id="id18"><path d="M -98.722656 187.5 L 187.65625 -98.878906 L 474.035156 187.5 L 187.65625 473.878906 Z M -98.722656 187.5 " clip-rule="nonzero"/></clipPath><clipPath id="id19"><path d="M -98.722656 187.5 L 187.65625 -98.878906 L 474.035156 187.5 L 187.65625 473.878906 Z M -98.722656 187.5 " clip-rule="nonzero"/></clipPath><clipPath id="id20"><path d="M -98.722656 187.5 L 187.65625 -98.878906 L 474.035156 187.5 L 187.65625 473.878906 Z M -98.722656 187.5 " clip-rule="nonzero"/></clipPath><clipPath id="id21"><path d="M 12 65 L 367 65 L 367 201 L 12 201 Z M 12 65 " clip-rule="nonzero"/></clipPath><clipPath id="id22"><path d="M -98.722656 187.5 L 187.65625 -98.878906 L 474.035156 187.5 L 187.65625 473.878906 Z M -98.722656 187.5 " clip-rule="nonzero"/></clipPath><clipPath id="id23"><path d="M -98.722656 187.5 L 187.65625 -98.878906 L 474.035156 187.5 L 187.65625 473.878906 Z M -98.722656 187.5 " clip-rule="nonzero"/></clipPath><clipPath id="id24"><path d="M -98.722656 187.5 L 187.65625 -98.878906 L 474.035156 187.5 L 187.65625 473.878906 Z M -98.722656 187.5 " clip-rule="nonzero"/></clipPath></defs><g clip-path="url(#id1)"><g clip-path="url(#id2)"><g clip-path="url(#id3)"><g clip-path="url(#id4)"><path fill="rgb(100%, 100%, 100%)" d="M 25.316406 296.945312 L 353.648438 296.945312 L 353.648438 78.054688 L 25.316406 78.054688 Z M 25.316406 296.945312 " fill-opacity="1" fill-rule="nonzero"/></g></g></g></g><g clip-path="url(#id5)"><g clip-path="url(#id6)"><g clip-path="url(#id7)"><g clip-path="url(#id8)"><path stroke-linecap="butt" transform="matrix(18.240653, -18.240653, 18.240653, 18.240653, -102.369452, 187.49946)" fill="none" stroke-linejoin="bevel" d="M 0.499982 6.500088 L 9.49999 15.500096 L 15.500067 9.50002 L 6.500059 0.500012 Z M 0.499982 6.500088 " stroke="rgb(0%, 0%, 0%)" stroke-width="1" stroke-opacity="1" stroke-miterlimit="0"/></g></g></g></g><g clip-path="url(#id9)"><g clip-path="url(#id10)"><g clip-path="url(#id11)"><g clip-path="url(#id12)"><path fill="rgb(100%, 100%, 100%)" d="M 353.648438 296.945312 L 25.316406 296.945312 L 171.242188 151.019531 L 207.722656 151.019531 Z M 353.648438 296.945312 " fill-opacity="1" fill-rule="nonzero"/></g></g></g></g><g clip-path="url(#id13)"><g clip-path="url(#id14)"><g clip-path="url(#id15)"><g clip-path="url(#id16)"><path stroke-linecap="butt" transform="matrix(18.240653, -18.240653, 18.240653, 18.240653, -102.369452, 187.49946)" fill="none" stroke-linejoin="bevel" d="M 9.49999 15.500096 L 0.499982 6.500088 L 8.500013 6.500088 L 9.49999 7.500066 Z M 9.49999 15.500096 " stroke="rgb(0%, 0%, 0%)" stroke-width="1" stroke-opacity="1" stroke-miterlimit="0"/></g></g></g></g><g clip-path="url(#id17)"><g clip-path="url(#id18)"><g clip-path="url(#id19)"><g clip-path="url(#id20)"><path fill="rgb(100%, 100%, 100%)" d="M 25.316406 78.054688 L 353.648438 78.054688 L 207.722656 187.5 L 171.242188 187.5 Z M 25.316406 78.054688 " fill-opacity="1" fill-rule="nonzero"/></g></g></g></g><g clip-path="url(#id21)"><g clip-path="url(#id22)"><g clip-path="url(#id23)"><g clip-path="url(#id24)"><path stroke-linecap="butt" transform="matrix(18.240653, -18.240653, 18.240653, 18.240653, -102.369452, 187.49946)" fill="none" stroke-linejoin="bevel" d="M 6.500059 0.500012 L 15.500067 9.50002 L 8.500013 8.500043 L 7.500036 7.500066 Z M 6.500059 0.500012 " stroke="rgb(0%, 0%, 0%)" stroke-width="1" stroke-opacity="1" stroke-miterlimit="0"/></g></g></g></g></svg>