<svg xmlns="http://www.w3.org/2000/svg" xmlns:xlink="http://www.w3.org/1999/xlink" width="500" zoomAndPan="magnify" viewBox="0 0 375 374.999991" height="500" preserveAspectRatio="xMidYMid meet" version="1.0"><defs><clipPath id="id1"><path d="M 46.390625 1 L 327 1 L 327 375 L 46.390625 375 Z M 46.390625 1 " clip-rule="nonzero"/></clipPath></defs><g clip-path="url(#id1)"><path fill="rgb(0%, 0%, 0%)" d="M 290.847656 133.390625 L 279.953125 133.390625 C 281.179688 113.957031 282.347656 61.769531 252.371094 27.972656 C 236.316406 9.875 214.472656 1.246094 187.441406 1.246094 C 187.421875 1.246094 187.398438 1.246094 187.382812 1.246094 C 159.175781 1.246094 136.457031 10.199219 119.859375 28.898438 C 89.761719 62.816406 90.695312 117.84375 91.859375 133.390625 L 83.9375 133.390625 C 63.753906 133.390625 46.730469 149.765625 46.730469 169.964844 L 46.730469 338.277344 C 46.730469 358.472656 63.75 374.359375 83.9375 374.359375 L 290.847656 374.359375 C 311.03125 374.359375 326.359375 358.472656 326.359375 338.277344 L 326.359375 169.964844 C 326.359375 149.765625 311.03125 133.390625 290.847656 133.390625 Z M 213.011719 316.058594 L 164.96875 316.058594 L 172.617188 262.398438 C 161.09375 256.847656 153.074219 244.804688 153.074219 231.144531 C 153.074219 212.171875 168.441406 196.605469 187.394531 196.605469 C 206.347656 196.605469 221.710938 211.890625 221.710938 230.863281 C 221.710938 243.597656 214.699219 255.300781 204.40625 261.21875 Z M 246.90625 133.390625 L 124.910156 133.390625 C 124.136719 125.617188 121.34375 75.847656 144.558594 49.78125 C 154.769531 38.316406 168.785156 32.339844 187.40625 32.339844 C 187.421875 32.339844 187.429688 32.339844 187.445312 32.339844 C 204.863281 32.339844 218.027344 38.007812 227.683594 48.859375 C 250.785156 74.820312 247.699219 125.617188 246.90625 133.390625 Z M 246.90625 133.390625 " fill-opacity="1" fill-rule="nonzero"/></g></svg>