<svg xmlns="http://www.w3.org/2000/svg" xmlns:xlink="http://www.w3.org/1999/xlink" width="500" zoomAndPan="magnify" viewBox="0 0 375 374.999991" height="500" preserveAspectRatio="xMidYMid meet" version="1.0"><defs><clipPath id="id1"><path d="M 0 24.84375 L 375 24.84375 L 375 350.34375 L 0 350.34375 Z M 0 24.84375 " clip-rule="nonzero"/></clipPath></defs><g clip-path="url(#id1)"><path fill="rgb(0%, 0%, 0%)" d="M 0.0117188 319.195312 L 0.0117188 56.046875 C 0.148438 38.109375 15.574219 24.925781 33.300781 24.886719 L 208.152344 24.886719 C 225.878906 24.925781 241.316406 38.109375 241.449219 56.046875 L 241.449219 133.554688 L 222.546875 133.554688 L 222.546875 56.046875 C 222.535156 50 216.769531 43.863281 208.152344 43.804688 L 33.300781 43.804688 C 24.679688 43.863281 18.925781 50 18.902344 56.046875 L 18.902344 319.195312 C 18.925781 325.226562 24.679688 331.371094 33.300781 331.417969 L 208.152344 331.417969 C 216.769531 331.371094 222.535156 325.226562 222.546875 319.195312 L 222.546875 245.789062 L 241.449219 245.789062 L 241.449219 319.195312 C 241.316406 337.121094 225.878906 350.3125 208.152344 350.347656 L 33.300781 350.347656 C 15.574219 350.3125 0.148438 337.121094 0 319.195312 Z M 171.453125 144.535156 L 265.855469 144.535156 L 265.855469 90.148438 L 375 187.617188 L 265.855469 285.097656 L 265.855469 233.980469 L 171.453125 233.980469 L 171.453125 144.535156 " fill-opacity="1" fill-rule="nonzero"/></g></svg>