<svg xmlns="http://www.w3.org/2000/svg" xmlns:xlink="http://www.w3.org/1999/xlink" width="500" zoomAndPan="magnify" viewBox="0 0 375 374.999991" height="500" preserveAspectRatio="xMidYMid meet" version="1.0"><defs><clipPath id="id1"><path d="M 0 2.039062 L 375 2.039062 L 375 375 L 0 375 Z M 0 2.039062 " clip-rule="nonzero"/></clipPath></defs><g clip-path="url(#id1)"><path fill="rgb(0%, 0%, 0%)" d="M 187.5 189.539062 C 239.296875 189.539062 281.25 147.46875 281.25 95.789062 C 281.25 43.992188 239.296875 2.039062 187.5 2.039062 C 135.703125 2.039062 93.75 43.992188 93.75 95.789062 C 93.75 147.46875 135.703125 189.539062 187.5 189.539062 Z M 187.5 236.414062 C 125.039062 236.414062 0 267.703125 0 330.164062 L 0 377.039062 L 375 377.039062 L 375 330.164062 C 375 267.703125 249.960938 236.414062 187.5 236.414062 Z M 187.5 236.414062 " fill-opacity="1" fill-rule="nonzero"/></g></svg>