<svg xmlns="http://www.w3.org/2000/svg" xmlns:xlink="http://www.w3.org/1999/xlink" width="500" zoomAndPan="magnify" viewBox="0 0 375 374.999991" height="500" preserveAspectRatio="xMidYMid meet" version="1.0"><defs><clipPath id="id1"><path d="M 19.769531 39.539062 L 355.019531 39.539062 L 355.019531 374.789062 L 19.769531 374.789062 Z M 19.769531 39.539062 " clip-rule="nonzero"/></clipPath><clipPath id="id2"><path d="M 119.328125 0.539062 L 255.828125 0.539062 L 255.828125 78.238281 L 119.328125 78.238281 Z M 119.328125 0.539062 " clip-rule="nonzero"/></clipPath></defs><rect x="-37.5" width="450" fill="rgb(100%, 100%, 100%)" y="-37.499999" height="449.999989" fill-opacity="1"/><rect x="-37.5" width="450" fill="rgb(100%, 100%, 100%)" y="-37.499999" height="449.999989" fill-opacity="1"/><rect x="-37.5" width="450" fill="rgb(100%, 100%, 100%)" y="-37.499999" height="449.999989" fill-opacity="1"/><rect x="-37.5" width="450" fill="rgb(100%, 100%, 100%)" y="-37.499999" height="449.999989" fill-opacity="1"/><g clip-path="url(#id1)"><path fill="rgb(0%, 0%, 0%)" d="M 187.394531 207.164062 C 233.699219 207.164062 271.207031 169.550781 271.207031 123.351562 C 271.207031 77.042969 233.699219 39.539062 187.394531 39.539062 C 141.085938 39.539062 103.582031 77.042969 103.582031 123.351562 C 103.582031 169.550781 141.085938 207.164062 187.394531 207.164062 Z M 187.394531 249.070312 C 131.554688 249.070312 19.769531 277.042969 19.769531 332.882812 L 19.769531 374.789062 L 355.019531 374.789062 L 355.019531 332.882812 C 355.019531 277.042969 243.234375 249.070312 187.394531 249.070312 Z M 187.394531 249.070312 " fill-opacity="1" fill-rule="nonzero"/></g><g clip-path="url(#id2)"><path fill="rgb(0%, 0%, 0%)" d="M 221.714844 63.828125 C 218.933594 63.828125 216.671875 61.589844 216.671875 58.8125 C 216.671875 56.042969 218.933594 53.792969 221.714844 53.792969 C 224.5 53.792969 226.757812 56.042969 226.757812 58.8125 C 226.757812 61.589844 224.5 63.828125 221.714844 63.828125 Z M 187.578125 63.828125 C 184.796875 63.828125 182.535156 61.589844 182.535156 58.8125 C 182.535156 56.042969 184.796875 53.792969 187.578125 53.792969 C 190.363281 53.792969 192.625 56.042969 192.625 58.8125 C 192.625 61.589844 190.363281 63.828125 187.578125 63.828125 Z M 153.445312 63.828125 C 150.660156 63.828125 148.398438 61.589844 148.398438 58.8125 C 148.398438 56.042969 150.660156 53.792969 153.445312 53.792969 C 156.226562 53.792969 158.488281 56.042969 158.488281 58.8125 C 158.488281 61.589844 156.226562 63.828125 153.445312 63.828125 Z M 250.785156 0.539062 C 248.003906 0.539062 245.730469 2.789062 245.730469 5.558594 C 245.730469 8.292969 247.9375 10.523438 250.679688 10.574219 L 221.714844 39.386719 L 216.648438 39.386719 L 187.675781 10.574219 C 190.417969 10.523438 192.625 8.292969 192.625 5.558594 C 192.625 2.789062 190.363281 0.539062 187.578125 0.539062 C 184.796875 0.539062 182.535156 2.789062 182.535156 5.558594 C 182.535156 8.292969 184.742188 10.523438 187.484375 10.574219 L 158.507812 39.386719 L 153.445312 39.386719 L 124.480469 10.574219 C 127.210938 10.523438 129.429688 8.292969 129.429688 5.558594 C 129.429688 2.789062 127.167969 0.539062 124.375 0.539062 C 121.589844 0.539062 119.328125 2.789062 119.328125 5.558594 C 119.328125 8.335938 121.589844 10.574219 124.375 10.574219 L 124.375 78.238281 L 250.785156 78.238281 L 250.785156 10.574219 C 253.570312 10.574219 255.828125 8.335938 255.828125 5.558594 C 255.828125 2.789062 253.570312 0.539062 250.785156 0.539062 " fill-opacity="1" fill-rule="nonzero"/></g></svg>